# xmcd CD database file
#
# Track frame offsets:
#	150
#	24638
#	37838
#	51563
#	61676
#	71701
#	85951
#	99826
#	118576
#	127876
#	141226
#	154726
#	165376
#	178163
#	188026
#	198563
#	211493
#	229418
#	233531
#	242993
#	255293
#
# Disc length: 3552 seconds
#
# Revision: 0
# Processed by: cddbd v1.5.2PL0 Copyright (c) Steve Scherf et al.
# Submitted via: CDex 1.51
#
DISCID=1f0dde15
DTITLE=Miles Davis - Ascenseur pour l'échafaud
DYEAR=1958
DGENRE=Jazz
TTITLE0=Artiste inconnu - 02-Nuit sur les Champs-Élysées [Take 2]
TTITLE1=Artiste inconnu - 03-Nuit sur les Champs-Élysées [Take 3]
TTITLE2=Artiste inconnu - 04-Nuit sur les Champs-Élysées [Take 4]
TTITLE3=Artiste inconnu - 06-Assassinat [Take 2]
TTITLE4=Artiste inconnu - 07-Assassinat [Take 3]
TTITLE5=Artiste inconnu - 09-Final [Take 1]
TTITLE6=Artiste inconnu - 10-Final [Take 2]
TTITLE7=Artiste inconnu - 11-Final [Take 3]
TTITLE8=Artiste inconnu - 12-Ascenseur
TTITLE9=Artiste inconnu - 14-Le Petit Bal [Take 2]
TTITLE10=Artiste inconnu - 15-Séquence Voiture [Take 1]
TTITLE11=Artiste inconnu - 16-Séquence Voiture [Take 2]
TTITLE12=Artiste inconnu - 17-Générique
TTITLE13=Artiste inconnu - 18-L' Assassinat de Carala
TTITLE14=Artiste inconnu - 19-Sur l'Autoroute
TTITLE15=Artiste inconnu - 21-Florence Sur Les Champs-Élysées
TTITLE16=Artiste inconnu - 22-Diner au Motel
TTITLE17=Artiste inconnu - 23-Évasion de Julien
TTITLE18=Artiste inconnu - 24-Visite du Vigile
TTITLE19=Artiste inconnu - 272-Le Petit Bal [Take 1]
TTITLE20=Artiste inconnu - 01-Nuit sur les Champs-Élysées [Take 1]
EXTD=YEAR: 1958
EXTT0=
EXTT1=
EXTT2=
EXTT3=
EXTT4=
EXTT5=
EXTT6=
EXTT7=
EXTT8=
EXTT9=
EXTT10=
EXTT11=
EXTT12=
EXTT13=
EXTT14=
EXTT15=
EXTT16=
EXTT17=
EXTT18=
EXTT19=
EXTT20=
PLAYORDER=
